<?xml version="1.0" encoding="UTF-8"?>
<svg id="Layer_1" data-name="Layer 1" xmlns="http://www.w3.org/2000/svg" viewBox="0 0 1173.46 853.94">
  <defs>
    <style>
      .cls-1 {
        fill: #a86672;
      }

      .cls-2 {
        fill: #575777;
      }

      .cls-3 {
        fill: #b1acd6;
      }
    </style>
  </defs>
  <path class="cls-2" d="M277.8,286.99l-121.23-62.16c-70.85-38.32-22.46-31.84-22.46-31.84,11.81,6.39,23.96.84,23.96.84C102.72,138.15,10.82,116.2.88,134.57c-9.93,18.36,66.99,68.03,66.99,68.03,29.72,16.08,98.39,56.26,203.57,118.24,1.33-11.52.08-14.16,6.36-33.85Z"/>
  <path class="cls-2" d="M1158.22,651.42l-170.83-97.84c4.25,18.79-7.37,61.44-19.72,71.41l154.84,88.67s24.15,15.11,43.8-14.88c19.93-30.43-8.08-47.37-8.08-47.37Z"/>
  <g>
    <path class="cls-1" d="M242.32,6.05c5.74,2.33,10.12,5.52,13.13,9.55,3.01,4.04,4.52,8.67,4.52,13.9,0,2.96-.4,5.69-1.19,8.19-3.3,11.48-12.79,18.76-28.48,21.83,5.46,1.59,9.78,4.24,12.96,7.93,3.18,3.7,4.78,8.27,4.78,13.73,0,2.5-.46,5.46-1.36,8.87-2.5,8.87-7.53,15.43-15.09,19.7-7.56,4.26-18.28,6.4-32.15,6.4h-70.94c-2.39,0-4.23-.4-5.54-1.19-1.31-.79-1.96-1.88-1.96-3.24,0-.68.17-1.42.51-2.22.46-1.25,1.19-2.22,2.22-2.9,1.02-.68,1.65-1.08,1.88-1.19,1.82-1.14,3.3-2.3,4.43-3.5,1.14-1.19,2.1-3.16,2.9-5.89l20.81-73.5c.45-1.48.68-2.9.68-4.26,0-1.25-.2-2.3-.6-3.16-.4-.85-.94-1.85-1.62-2.98-1.02-1.48-1.53-2.67-1.53-3.58,0-.34.11-.96.34-1.88.45-1.48,1.45-2.53,2.98-3.16,1.54-.62,3.89-.94,7.08-.94h61.05c7.73,0,14.47,1.17,20.21,3.5ZM203.18,76.4c0-6.14-3.53-9.21-10.57-9.21h-8.53l-9.72,33.6h8.7c4.89,0,8.81-1.22,11.77-3.67,2.96-2.44,5.34-6.85,7.16-13.22.79-2.73,1.19-5.23,1.19-7.5ZM215.63,26.78c0-5.91-3.36-8.87-10.06-8.87h-7.67l-9.04,31.89h7.5c4.78,0,8.55-1.16,11.34-3.5,2.78-2.33,5.03-6.51,6.74-12.53.79-2.5,1.19-4.83,1.19-6.99Z"/>
    <path class="cls-1" d="M371.84,10.15c8.07,6.77,12.11,16.52,12.11,29.25,0,6.03-.91,12.51-2.73,19.44-3.41,12.73-8.7,23.53-15.86,32.4-7.16,8.87-15.69,15.58-25.58,20.12-9.89,4.55-20.63,6.82-32.23,6.82-14.21,0-25.35-3.38-33.43-10.15-8.07-6.76-12.11-16.51-12.11-29.25,0-5.8.96-12.45,2.9-19.95,3.3-12.62,8.5-23.33,15.61-32.15,7.1-8.81,15.57-15.46,25.41-19.95,9.83-4.49,20.61-6.74,32.32-6.74,14.32,0,25.52,3.38,33.6,10.15ZM325.97,20.81c-2.73,2.73-5.43,7.19-8.1,13.39-2.67,6.2-5.54,14.81-8.61,25.84-4.55,15.92-6.82,26.89-6.82,32.91,0,3.52.62,6.08,1.88,7.67,1.25,1.59,3.24,2.39,5.97,2.39,3.41,0,6.48-1.39,9.21-4.18,2.73-2.78,5.4-7.25,8.02-13.39,2.61-6.14,5.51-14.61,8.7-25.41,4.43-15.69,6.65-26.71,6.65-33.08,0-3.64-.63-6.25-1.88-7.84-1.25-1.59-3.18-2.39-5.8-2.39-3.41,0-6.48,1.36-9.21,4.09Z"/>
    <path class="cls-1" d="M513.22,6.99c0,.8-.06,1.37-.17,1.71-.34,1.14-.85,2.02-1.54,2.64-.68.63-1.65,1.34-2.9,2.13-1.71,1.02-3.13,2.16-4.26,3.41-1.14,1.25-2.11,3.18-2.9,5.8l-21.15,75.72c-1.93,6.82-4.35,11.6-7.25,14.33s-6.91,4.09-12.02,4.09c-4.55,0-8.33-1.34-11.34-4.01-3.01-2.67-5.83-6.79-8.44-12.37l-25.75-54.23-14.33,49.8c-.34,1.48-.51,2.79-.51,3.92,0,1.48.26,2.7.77,3.67.51.97,1.22,1.96,2.13,2.98,1.25,1.48,1.88,2.73,1.88,3.75,0,.68-.06,1.19-.17,1.54-.46,1.59-1.48,2.7-3.07,3.32-1.59.63-3.98.94-7.16.94h-18.59c-4.66,0-6.99-1.48-6.99-4.43,0-.79.06-1.36.17-1.7.34-1.14.85-2.02,1.54-2.64.68-.62,1.65-1.34,2.9-2.13,1.7-1.02,3.12-2.16,4.26-3.41,1.13-1.25,2.1-3.18,2.9-5.8l21.66-76.57-2.73-5.63c-1.14-2.27-1.7-4.26-1.7-5.97,0-3.52,2.27-5.29,6.82-5.29h25.24c3.64,0,6.4.83,8.27,2.47,1.88,1.65,3.89,4.58,6.05,8.78l24.9,49.97,11.77-41.1c.34-1.59.51-2.9.51-3.92,0-1.48-.26-2.7-.77-3.67-.51-.96-1.22-1.96-2.13-2.98-1.25-1.48-1.88-2.73-1.88-3.75,0-.68.06-1.19.17-1.54.45-1.59,1.48-2.7,3.07-3.33,1.59-.62,3.98-.94,7.16-.94h18.59c4.66,0,6.99,1.48,6.99,4.43Z"/>
    <path class="cls-1" d="M623.64,5.29c2.33,1.82,3.5,4.32,3.5,7.5,0,1.59-.23,3.13-.68,4.6l-4.43,15.86c-.8,3.07-1.96,5.2-3.5,6.4-1.54,1.19-3.73,1.79-6.57,1.79s-4.86-.6-6.4-1.79c-1.54-1.19-2.7-3.16-3.5-5.88l-2.73-9.72c-.57-2.05-1.25-3.41-2.05-4.09-.8-.68-2.33-1.02-4.6-1.02h-17.91l-8.53,30.36h7.51c.79,0,1.88-.57,3.24-1.7l5.8-5.12c1.71-1.48,3.18-2.56,4.43-3.24,1.25-.68,2.78-1.02,4.6-1.02,2.05,0,3.72.54,5.03,1.62,1.31,1.08,1.96,2.47,1.96,4.18,0,.46-.12,1.14-.34,2.05l-6.99,23.71c-.68,2.5-1.85,4.35-3.5,5.54-1.65,1.19-3.44,1.79-5.37,1.79-3.18,0-5.57-1.65-7.16-4.94l-2.9-5.97c-.8-1.7-2.05-2.56-3.75-2.56h-6.65l-10.06,36.15h15.01c2.16,0,4.06-.43,5.71-1.28,1.65-.85,3.44-2.36,5.37-4.52l10.23-11.26c1.82-1.93,3.55-3.33,5.2-4.18,1.65-.85,3.67-1.28,6.05-1.28s4.55.57,6.14,1.7c1.59,1.14,2.39,2.84,2.39,5.12,0,.91-.17,1.99-.51,3.24l-4.95,17.22c-1.25,4.32-3.07,7.33-5.46,9.04-2.39,1.71-5.86,2.56-10.4,2.56h-81.35c-2.39,0-4.23-.4-5.54-1.19-1.31-.79-1.96-1.88-1.96-3.24,0-.68.17-1.42.51-2.22.46-1.25,1.19-2.22,2.22-2.9,1.02-.68,1.65-1.08,1.88-1.19,1.82-1.14,3.3-2.3,4.43-3.5,1.14-1.19,2.1-3.16,2.9-5.89l20.98-73.5c.45-1.48.68-2.84.68-4.09,0-1.36-.2-2.5-.6-3.41-.4-.91-1-1.88-1.79-2.9-1.02-1.48-1.53-2.67-1.53-3.58,0-.34.11-.96.34-1.88.45-1.48,1.48-2.53,3.07-3.16,1.59-.62,3.92-.94,6.99-.94h75.72c4.2,0,7.47.91,9.81,2.73Z"/>
    <path class="cls-1" d="M765.27,6.74c3.18,3.24,4.78,7.36,4.78,12.37,0,.68-.12,1.93-.34,3.75-.91,5.46-3.04,9.49-6.4,12.11-3.35,2.62-7.25,3.92-11.68,3.92-2.96,0-5.46-.45-7.51-1.36-2.05-.91-3.98-2.44-5.8-4.6l-28.14,36.67-7.84,26.43c-.23.68-.34,1.59-.34,2.73,0,1.59.4,2.93,1.19,4.01.79,1.08,1.93,2.25,3.41,3.5,1.25,1.14,2.16,2.1,2.73,2.9.57.8.68,1.7.34,2.73-.46,1.59-1.56,2.7-3.32,3.32-1.76.63-4.18.94-7.25.94h-42.98c-2.96,0-5.14-.54-6.56-1.62-1.42-1.08-1.91-2.58-1.45-4.52.23-1.02.65-1.85,1.28-2.47.62-.62,1.62-1.39,2.98-2.3,1.71-1.02,3.13-2.19,4.26-3.5,1.14-1.31,2.1-3.21,2.9-5.71l7.84-26.6-15.69-44.68c-1.14-3.3-2.47-5.82-4.01-7.59-1.54-1.76-3.33-3.5-5.37-5.2-1.25-.91-2.16-1.7-2.73-2.39-.57-.68-.85-1.48-.85-2.39,0-1.36.6-2.47,1.79-3.32,1.19-.85,2.93-1.28,5.2-1.28h45.53c3.98,0,6.71.34,8.19,1.02,1.48.68,2.27,1.88,2.39,3.58,0,1.02-.23,1.9-.68,2.64-.46.74-1.14,1.62-2.05,2.64-1.02,1.36-1.79,2.47-2.3,3.32-.51.85-.77,1.91-.77,3.16,0,.34.11,1.08.34,2.22l7.85,30.01,21.66-30.87c4.66-6.59,9.06-11.31,13.22-14.15,4.15-2.84,8.78-4.26,13.9-4.26s9.09,1.62,12.28,4.86Z"/>
    <path class="cls-1" d="M838.6,96.01c-.46,1.48-.68,2.96-.68,4.43,0,1.25.17,2.3.51,3.16.34.85.71,1.54,1.11,2.05.4.51.65.88.77,1.11,1.14,1.14,1.71,2.28,1.71,3.41,0,.23-.12.8-.34,1.7-.46,1.59-1.45,2.7-2.99,3.32-1.53.63-3.9.94-7.08.94h-40.42c-2.39,0-4.24-.4-5.54-1.19-1.31-.79-1.96-1.88-1.96-3.24,0-.68.17-1.42.51-2.22.34-.91.82-1.62,1.45-2.13.62-.51,1.51-1.11,2.64-1.79,1.82-1.02,3.3-2.16,4.43-3.41,1.14-1.25,2.1-3.3,2.9-6.14l4.43-14.67h-26.6l-4.61,9.72c-1.93,4.21-2.9,7.5-2.9,9.89,0,1.36.23,2.47.68,3.33.45.85,1.14,1.73,2.05,2.64.79.91,1.33,1.68,1.62,2.3.28.63.31,1.45.08,2.47-.46,1.71-1.39,2.87-2.81,3.5-1.42.63-3.67.94-6.74.94h-25.41c-2.61,0-4.6-.48-5.97-1.45-1.36-.97-2.05-2.24-2.05-3.84,0-1.82.66-3.27,1.96-4.35,1.31-1.08,3.27-2.24,5.88-3.5,3.41-1.71,6.14-3.38,8.19-5.03,2.05-1.65,3.81-3.95,5.29-6.91l30.36-62.93c4.66-9.78,10.15-16.85,16.46-21.23,6.31-4.38,14.64-6.57,24.98-6.57,11.6,0,20.58,2.36,26.95,7.08,6.37,4.72,9.55,11.29,9.55,19.7,0,3.52-.57,7.16-1.7,10.91l-16.71,57.98ZM805.18,64.29l9.04-30.01c.45-1.36.68-2.78.68-4.26,0-2.16-.6-3.78-1.79-4.86-1.19-1.08-2.87-1.62-5.03-1.62-2.73,0-5.06.8-6.99,2.39-1.93,1.59-3.87,4.43-5.8,8.53l-13.98,29.84h23.88Z"/>
    <path class="cls-1" d="M973.5,52.61c-5.01,3.7-11.31,6-18.93,6.91,5.46.45,9.55,2.05,12.28,4.77,2.73,2.73,4.09,6.31,4.09,10.75,0,1.7-.28,3.81-.85,6.31l-1.88,8.36c-.23,1.14-.34,1.93-.34,2.39,0,1.48.34,2.59,1.02,3.32.68.74,1.65,1.11,2.9,1.11,2.39,0,4.12.34,5.2,1.02,1.08.68,1.45,1.93,1.11,3.75-.46,2.62-1.82,5.17-4.09,7.67-2.28,2.5-5.49,4.58-9.64,6.22-4.15,1.65-9.18,2.47-15.09,2.47-7.5,0-13.47-1.68-17.91-5.03-4.43-3.35-6.65-8.16-6.65-14.41,0-2.39.34-4.95,1.02-7.67l2.73-10.91c.45-1.48.68-3.01.68-4.6,0-2.61-.88-4.49-2.64-5.63-1.76-1.14-4.58-1.71-8.44-1.71h-6.48l-7.84,28.31c-.23.68-.34,1.54-.34,2.56,0,1.59.4,2.96,1.19,4.09.79,1.14,1.88,2.33,3.24,3.58,1.02.8,1.82,1.56,2.39,2.3.57.74.85,1.51.85,2.3,0,1.93-.91,3.3-2.73,4.09-1.82.8-4.49,1.19-8.02,1.19h-42.81c-2.96,0-5.17-.54-6.65-1.62-1.48-1.08-1.99-2.58-1.53-4.52.23-1.02.66-1.85,1.28-2.47.63-.62,1.57-1.34,2.81-2.13,1.93-1.14,3.47-2.33,4.6-3.58,1.14-1.25,2.05-3.18,2.73-5.8l20.81-73.5c.45-1.48.68-2.9.68-4.26,0-1.25-.2-2.3-.6-3.16-.4-.85-.94-1.85-1.62-2.98-1.02-1.48-1.54-2.67-1.54-3.58,0-.34.11-.96.34-1.88.45-1.48,1.45-2.53,2.99-3.16,1.53-.62,3.89-.94,7.08-.94h57.13c7.84,0,14.69,1.19,20.55,3.58,5.85,2.39,10.34,5.66,13.47,9.81,3.13,4.15,4.69,8.84,4.69,14.07,0,2.39-.34,4.78-1.02,7.16-1.82,6.6-5.23,11.74-10.23,15.43ZM940.93,29.5c0-6.02-3.3-9.04-9.89-9.04h-7.16l-7.5,30.19h7.16c4.43,0,7.93-1.08,10.49-3.24,2.56-2.16,4.58-6.14,6.05-11.94.57-2.61.85-4.6.85-5.97Z"/>
    <path class="cls-1" d="M1103.11,12.37c8.64,6.54,12.96,16.12,12.96,28.73,0,6.25-1.14,13.47-3.41,21.66-3.75,13.19-8.81,23.65-15.18,31.38-6.37,7.73-14.75,13.36-25.15,16.88-10.4,3.52-23.74,5.23-39.99,5.12l-46.39-.17c-2.39,0-4.23-.4-5.54-1.19-1.31-.79-1.96-1.88-1.96-3.24,0-.68.17-1.42.51-2.22.34-1.02.83-1.76,1.45-2.22.63-.45,1.56-1.08,2.81-1.88,1.82-1.02,3.27-2.16,4.35-3.41,1.08-1.25,2.02-3.24,2.81-5.97l20.81-73.33c.45-1.48.68-2.9.68-4.26,0-1.25-.2-2.3-.6-3.16-.4-.85-.94-1.85-1.62-2.98-1.02-1.48-1.53-2.67-1.53-3.58,0-.34.11-.96.34-1.88.45-1.48,1.45-2.53,2.98-3.16,1.54-.62,3.89-.94,7.08-.94h46.05c17.05,0,29.9,3.27,38.54,9.81ZM1073.44,33.77c0-6.02-1.25-10.17-3.75-12.45-2.5-2.27-6.08-3.41-10.75-3.41h-3.75l-23.02,82.88h4.09c5.23,0,9.64-1.11,13.22-3.32,3.58-2.22,6.91-6.31,9.98-12.28,3.07-5.97,6.25-14.69,9.55-26.18,2.96-10.69,4.43-19.1,4.43-25.24Z"/>
  </g>
  <path class="cls-3" d="M392.34,669.89h16.01v73.56c4.54-6.81,9.73-12.28,15.51-16.29,9.1-6.31,20.63-9.51,34.27-9.51,15.04,0,27.36,3.47,36.61,10.32,6.17,4.58,10.67,10.33,13.38,17.02l.34-1.18c2.35-8.1,6.38-14.24,11.99-18.25,5.35-3.82,12.19-5.76,20.33-5.76h76.05c9.97,0,16.57,3.94,20.36,7.24,6.03,5.29,9.34,12.61,9.34,20.64,0,9.02-3.8,17.39-11.29,24.87l-21.87,21.82c1.74.74,3.4,1.66,4.95,2.77,5.8,4.14,9.18,10.34,9.64,17.59l29.02-60.17c5.8-12.18,13.14-21.41,21.79-27.41,9.1-6.31,20.63-9.51,34.27-9.51,15.05,0,27.36,3.47,36.61,10.32,10.73,7.95,16.4,19.45,16.4,33.26,0,5.08-.8,10.33-2.38,15.59l-11.41,39.6c.06-.04.11-.08.15-.11.09-.12.28-.4.55-.93l29.34-60.82c5.8-12.18,13.13-21.41,21.78-27.41,8.81-6.11,19.91-9.29,32.98-9.49v-47.78h16.01c60.11,0,108.79-48.67,108.79-108.79v-208.56c-2.96-82.26-34.22-156.87-84.12-214.35h-16.02c-4.51,0-8.56-.75-12.15-2.2-3.77,1.5-8.15,2.2-13.77,2.2h-40.42c-5.45,0-10.27-1.15-14.33-3.42-.62.34-1.25.65-1.9.94-3.84,1.69-8.33,2.48-14.12,2.48h-25.41c-6.48,0-12.07-1.62-16.6-4.83-.12-.08-.23-.17-.34-.26-1.81,1.28-3.82,2.33-6,3.1-3.76,1.34-8.14,1.99-13.38,1.99h-42.98c-7.06,0-13.02-1.81-17.71-5.38-7.26-5.51-10.34-14.21-8.24-23.29.99-4.37,3.14-8.31,6.22-11.38,1.5-1.5,3.33-2.95,5.75-4.57l5.9-20.02-9.67-27.54c-1.95,4.92-4.8,8.9-8.54,11.81-4.46,3.47-9.91,5.36-16.22,5.64l-.6,2.05c1.21.61,2.37,1.31,3.48,2.1,6.53,4.67,10.13,11.82,10.13,20.12,0,2.57-.38,5.22-1.16,8.08l-.05.18-4.96,17.29c-2.44,8.41-6.63,14.78-12.45,18.94-5.56,3.97-12.66,5.99-21.1,5.99h-81.35c-5.8,0-10.89-1.31-15.12-3.88-1.96-1.19-3.66-2.61-5.12-4.2-4.47,4.08-12.23,8.76-24.27,8.76-9.04,0-17.19-2.99-23.56-8.65-4.95-4.39-9.17-10.38-12.89-18.32l-1.28-2.69c.36,1.57.54,3.15.54,4.76,0,2.51-.31,4.76-.96,6.87-2.09,7.04-7.06,12.42-13.98,15.13-3.81,1.5-8.22,2.2-13.87,2.2h-18.59c-4.32,0-8.05-.73-11.23-1.98-50.91,57.74-82.86,133.12-85.85,216.33v208.56c0,60.11,48.67,108.79,108.79,108.79ZM800.82,358.98c52.82,0,110.5-8.15,122.72,109.14,4.15,39.82-39.38,101.35-122.72,92.85-79.33-8.15-120.01-24.38-126.8-92.85-14.87-96.99,74.06-109.14,126.8-109.14ZM608.34,578.48s.05-.05.08-.09l14.32-24.8,14.67,25.4.18.31,19.07,30.7,18.23,33.81c8.07,15.01-2.43,33.51-19.08,33.51h-3.43c-5.36,0-10.58-1.41-15.3-4-4.43-2.5-7.29-6.93-12.86-6.93-.5,0-1,0-1.5.14-.5-.14-1-.14-1.5-.14-5.57,0-8.43,4.43-12.87,6.93-4.72,2.58-9.93,4-15.29,4h-3.43c-16.65,0-27.16-18.51-19.08-33.51l18.23-33.81,19.58-31.52ZM321.86,468.12c12.22-117.29,69.9-109.14,122.72-109.14s141.66,12.15,126.79,109.14c-6.79,68.48-47.46,84.7-126.79,92.85-83.34,8.5-126.87-53.04-122.72-92.85Z"/>
  <g>
    <path class="cls-1" d="M353.25,745.74c5.56,2.26,9.81,5.35,12.73,9.26,2.92,3.91,4.38,8.41,4.38,13.47,0,2.87-.39,5.51-1.16,7.94-3.2,11.13-12.4,18.19-27.61,21.16,5.29,1.55,9.48,4.11,12.57,7.69,3.08,3.58,4.63,8.02,4.63,13.31,0,2.43-.44,5.29-1.32,8.6-2.43,8.6-7.3,14.96-14.63,19.09-7.33,4.13-17.72,6.2-31.16,6.2h-68.77c-2.31,0-4.1-.38-5.37-1.16-1.27-.77-1.9-1.82-1.9-3.14,0-.66.17-1.38.5-2.15.44-1.21,1.16-2.15,2.15-2.81.99-.66,1.6-1.05,1.82-1.16,1.76-1.1,3.19-2.23,4.3-3.39,1.1-1.16,2.04-3.06,2.81-5.7l20.17-71.25c.44-1.43.66-2.81.66-4.13,0-1.21-.19-2.23-.58-3.06-.39-.83-.91-1.79-1.57-2.9-.99-1.43-1.49-2.59-1.49-3.47,0-.33.11-.94.33-1.82.44-1.43,1.4-2.45,2.89-3.06,1.49-.6,3.77-.91,6.86-.91h59.18c7.49,0,14.02,1.13,19.59,3.39ZM315.31,813.94c0-5.95-3.42-8.93-10.25-8.93h-8.27l-9.42,32.57h8.43c4.74,0,8.54-1.18,11.41-3.56,2.86-2.37,5.18-6.64,6.94-12.81.77-2.64,1.16-5.07,1.16-7.28ZM327.37,765.83c0-5.73-3.25-8.6-9.75-8.6h-7.44l-8.76,30.91h7.27c4.63,0,8.29-1.13,10.99-3.39,2.7-2.26,4.88-6.31,6.53-12.15.77-2.42,1.16-4.68,1.16-6.78Z"/>
    <path class="cls-1" d="M473.35,832.95c-.44,1.43-.66,2.87-.66,4.3,0,1.21.17,2.23.5,3.06.33.83.69,1.49,1.07,1.98s.64.85.75,1.08c1.1,1.1,1.65,2.2,1.65,3.3,0,.22-.11.77-.33,1.65-.44,1.55-1.4,2.62-2.89,3.23-1.49.61-3.78.91-6.86.91h-39.18c-2.31,0-4.11-.38-5.37-1.16-1.27-.77-1.9-1.82-1.9-3.14,0-.66.17-1.38.5-2.15.33-.88.8-1.57,1.41-2.07s1.46-1.08,2.56-1.74c1.76-.99,3.2-2.09,4.3-3.31,1.1-1.21,2.04-3.19,2.81-5.95l4.3-14.22h-25.79l-4.46,9.42c-1.88,4.08-2.81,7.28-2.81,9.59,0,1.32.22,2.4.66,3.22.44.83,1.1,1.68,1.98,2.57.77.88,1.3,1.63,1.57,2.23.27.61.3,1.4.08,2.4-.44,1.65-1.35,2.78-2.73,3.39-1.38.61-3.56.91-6.53.91h-24.63c-2.53,0-4.46-.47-5.79-1.41-1.32-.93-1.98-2.17-1.98-3.72,0-1.77.64-3.17,1.9-4.22,1.27-1.04,3.17-2.17,5.7-3.39,3.31-1.65,5.95-3.28,7.93-4.88,1.98-1.59,3.69-3.83,5.13-6.69l29.43-61c4.52-9.48,9.84-16.34,15.95-20.58,6.12-4.24,14.19-6.36,24.22-6.36,11.24,0,19.95,2.29,26.12,6.86,6.17,4.57,9.26,10.94,9.26,19.09,0,3.42-.56,6.95-1.65,10.58l-16.2,56.21ZM440.94,802.2l8.76-29.1c.44-1.32.66-2.7.66-4.13,0-2.1-.58-3.66-1.74-4.71-1.16-1.04-2.78-1.57-4.88-1.57-2.65,0-4.91.77-6.78,2.31s-3.75,4.3-5.62,8.27l-13.56,28.93h23.14Z"/>
    <path class="cls-1" d="M623.29,745.25c2.2,1.93,3.3,4.38,3.3,7.36,0,4.19-2.04,8.32-6.12,12.4l-71.74,71.58h19.51c2.09,0,3.94-.41,5.54-1.24,1.6-.83,3.33-2.29,5.21-4.38l9.92-10.91c1.76-1.87,3.44-3.22,5.04-4.05,1.6-.83,3.55-1.24,5.87-1.24s4.41.55,5.95,1.65c1.54,1.1,2.31,2.76,2.31,4.96,0,.88-.17,1.93-.5,3.14l-4.79,16.7c-1.22,4.19-2.98,7.11-5.29,8.76-2.31,1.65-5.68,2.48-10.08,2.48h-74.06c-4.74,0-8.29-.97-10.67-2.89-2.37-1.93-3.55-4.55-3.55-7.85,0-1.98.52-3.94,1.57-5.87,1.05-1.93,2.73-4.1,5.04-6.53l67.28-71.09h-15.37c-2.1,0-3.94.42-5.54,1.24s-3.33,2.29-5.21,4.38l-9.92,10.91c-1.77,1.88-3.44,3.23-5.04,4.05-1.6.83-3.56,1.24-5.87,1.24s-4.41-.55-5.95-1.65c-1.55-1.1-2.31-2.75-2.31-4.96,0-.99.17-2.04.5-3.14l4.79-16.7c1.21-4.19,2.98-7.11,5.29-8.76,2.31-1.65,5.68-2.48,10.08-2.48h76.05c3.63,0,6.55.97,8.76,2.89Z"/>
    <path class="cls-1" d="M728.26,832.95c-.44,1.43-.66,2.87-.66,4.3,0,1.21.17,2.23.5,3.06.33.83.69,1.49,1.07,1.98s.64.85.75,1.08c1.1,1.1,1.65,2.2,1.65,3.3,0,.22-.11.77-.33,1.65-.44,1.55-1.4,2.62-2.89,3.23-1.49.61-3.78.91-6.86.91h-39.18c-2.31,0-4.11-.38-5.37-1.16-1.27-.77-1.9-1.82-1.9-3.14,0-.66.17-1.38.5-2.15.33-.88.8-1.57,1.41-2.07s1.46-1.08,2.56-1.74c1.76-.99,3.2-2.09,4.3-3.31,1.1-1.21,2.04-3.19,2.81-5.95l4.3-14.22h-25.79l-4.46,9.42c-1.88,4.08-2.81,7.28-2.81,9.59,0,1.32.22,2.4.66,3.22.44.83,1.1,1.68,1.98,2.57.77.88,1.3,1.63,1.57,2.23.27.61.3,1.4.08,2.4-.44,1.65-1.35,2.78-2.73,3.39-1.38.61-3.56.91-6.53.91h-24.63c-2.53,0-4.46-.47-5.78-1.41-1.32-.93-1.98-2.17-1.98-3.72,0-1.77.64-3.17,1.9-4.22,1.27-1.04,3.17-2.17,5.7-3.39,3.31-1.65,5.95-3.28,7.94-4.88,1.98-1.59,3.69-3.83,5.13-6.69l29.43-61c4.52-9.48,9.84-16.34,15.95-20.58,6.12-4.24,14.19-6.36,24.22-6.36,11.24,0,19.95,2.29,26.12,6.86,6.17,4.57,9.26,10.94,9.26,19.09,0,3.42-.56,6.95-1.65,10.58l-16.2,56.21ZM695.86,802.2l8.76-29.1c.44-1.32.66-2.7.66-4.13,0-2.1-.58-3.66-1.74-4.71-1.16-1.04-2.78-1.57-4.88-1.57-2.65,0-4.91.77-6.78,2.31-1.87,1.54-3.75,4.3-5.62,8.27l-13.56,28.93h23.14Z"/>
    <path class="cls-1" d="M853.57,832.95c-.44,1.43-.66,2.87-.66,4.3,0,1.21.17,2.23.5,3.06.33.83.69,1.49,1.07,1.98s.64.85.75,1.08c1.1,1.1,1.65,2.2,1.65,3.3,0,.22-.11.77-.33,1.65-.44,1.55-1.4,2.62-2.89,3.23-1.49.61-3.78.91-6.86.91h-39.18c-2.31,0-4.11-.38-5.37-1.16-1.27-.77-1.9-1.82-1.9-3.14,0-.66.17-1.38.5-2.15.33-.88.8-1.57,1.41-2.07s1.46-1.08,2.56-1.74c1.76-.99,3.2-2.09,4.3-3.31,1.1-1.21,2.04-3.19,2.81-5.95l4.3-14.22h-25.79l-4.46,9.42c-1.88,4.08-2.81,7.28-2.81,9.59,0,1.32.22,2.4.66,3.22.44.83,1.1,1.68,1.98,2.57.77.88,1.3,1.63,1.57,2.23.27.61.3,1.4.08,2.4-.44,1.65-1.35,2.78-2.73,3.39-1.38.61-3.56.91-6.53.91h-24.63c-2.53,0-4.46-.47-5.78-1.41-1.32-.93-1.98-2.17-1.98-3.72,0-1.77.64-3.17,1.9-4.22,1.27-1.04,3.17-2.17,5.7-3.39,3.31-1.65,5.95-3.28,7.94-4.88,1.98-1.59,3.69-3.83,5.13-6.69l29.43-61c4.52-9.48,9.84-16.34,15.95-20.58,6.12-4.24,14.19-6.36,24.22-6.36,11.24,0,19.95,2.29,26.12,6.86,6.17,4.57,9.26,10.94,9.26,19.09,0,3.42-.56,6.95-1.65,10.58l-16.2,56.21ZM821.17,802.2l8.76-29.1c.44-1.32.66-2.7.66-4.13,0-2.1-.58-3.66-1.74-4.71-1.16-1.04-2.78-1.57-4.88-1.57-2.65,0-4.91.77-6.78,2.31s-3.75,4.3-5.62,8.27l-13.56,28.93h23.14Z"/>
    <path class="cls-1" d="M994.25,790.87c-4.85,3.58-10.97,5.82-18.35,6.69,5.29.44,9.26,1.98,11.9,4.63,2.64,2.64,3.97,6.12,3.97,10.41,0,1.65-.28,3.69-.83,6.12l-1.82,8.1c-.22,1.1-.33,1.87-.33,2.31,0,1.43.33,2.51.99,3.22.66.72,1.6,1.08,2.81,1.08,2.31,0,3.99.33,5.04.99,1.05.66,1.41,1.88,1.07,3.64-.44,2.54-1.76,5.02-3.96,7.44-2.21,2.43-5.32,4.44-9.34,6.03-4.03,1.6-8.9,2.4-14.63,2.4-7.28,0-13.06-1.63-17.36-4.88-4.3-3.25-6.45-7.91-6.45-13.97,0-2.32.33-4.8.99-7.44l2.64-10.58c.44-1.43.66-2.92.66-4.46,0-2.54-.86-4.35-2.57-5.46-1.71-1.1-4.44-1.65-8.18-1.65h-6.28l-7.6,27.44c-.22.66-.33,1.49-.33,2.48,0,1.54.39,2.87,1.16,3.97.77,1.1,1.82,2.26,3.14,3.47.99.77,1.76,1.52,2.31,2.23.55.72.83,1.46.83,2.24,0,1.87-.88,3.2-2.64,3.96-1.77.77-4.36,1.16-7.77,1.16h-41.49c-2.87,0-5.02-.52-6.45-1.57-1.43-1.04-1.93-2.5-1.49-4.38.22-.99.64-1.79,1.24-2.4s1.51-1.3,2.73-2.07c1.87-1.1,3.36-2.26,4.46-3.47,1.1-1.21,1.98-3.08,2.64-5.62l20.17-71.25c.44-1.43.66-2.81.66-4.13,0-1.21-.19-2.23-.58-3.06-.39-.83-.91-1.79-1.57-2.9-.99-1.43-1.49-2.59-1.49-3.47,0-.33.11-.94.33-1.82.44-1.43,1.41-2.45,2.89-3.06,1.49-.6,3.77-.91,6.86-.91h55.38c7.61,0,14.25,1.16,19.92,3.47,5.68,2.32,10.03,5.49,13.06,9.51,3.03,4.03,4.55,8.57,4.55,13.64,0,2.31-.33,4.63-.99,6.94-1.77,6.39-5.07,11.38-9.92,14.96ZM962.68,768.47c0-5.84-3.2-8.76-9.59-8.76h-6.94l-7.27,29.26h6.94c4.3,0,7.69-1.04,10.17-3.14,2.48-2.09,4.43-5.95,5.87-11.57.55-2.53.83-4.46.83-5.79Z"/>
  </g>
</svg>